<svg width="90" height="76" viewBox="0 0 90 76" fill="none" xmlns="http://www.w3.org/2000/svg">
<path d="M41.7211 0C42.5718 1.26909 43.3426 2.39768 44.0711 3.54033C46.5464 7.32105 49.017 11.1033 51.4829 14.8872C53.8328 18.5024 56.1828 22.1239 58.5327 25.7517C58.6079 25.8641 58.6643 25.9858 58.7301 26.1029C59.4633 27.4001 59.5291 27.4656 58.4951 28.5146C56.1969 30.8561 53.8187 33.1133 51.4688 35.3986C51.2689 35.5593 51.0549 35.702 50.8296 35.8248L42.8397 22.3799H42.5201C42.1347 22.8951 41.707 23.3868 41.3781 23.93C39.1973 27.5499 37.0447 31.1839 34.8687 34.8086C32.6926 38.4332 30.5495 41.8939 28.4157 45.4623C26.4699 48.7404 24.5759 52.0185 22.663 55.2966C22.5502 55.4839 22.4703 55.6899 22.2917 56.0693C22.898 56.6734 23.1048 56.7858 23.368 56.6734C25.1728 55.894 26.9032 54.9536 28.5379 53.8636C31.6445 52.1871 34.6478 50.2858 37.5993 48.3517C40.8893 46.1788 44.0805 43.7811 47.2388 41.3835C49.1188 39.9786 50.8954 38.4051 52.6484 36.8316C54.5848 35.0849 56.5071 33.3147 58.3165 31.4415C60.2717 29.4184 62.1705 27.3205 63.9564 25.1382C65.8834 22.7967 67.6505 20.3054 69.4835 17.8749C69.7232 17.5565 69.93 17.2006 70.2026 16.7791L60.8639 12.2975L88.7531 0.121757C88.6826 1.11455 88.645 1.89192 88.5698 2.6693C88.4524 3.92902 88.2973 5.18405 88.1751 6.44377C87.9839 8.44809 87.8022 10.4524 87.6299 12.4567C87.5265 13.6321 87.4513 14.7982 87.3432 15.9783C87.1646 17.7953 86.9484 19.6685 86.8027 21.4949C86.6805 22.8295 86.61 24.1642 86.5066 25.4988C86.4784 25.8969 86.4173 26.2949 86.3562 26.8241L79.2123 22.5157C78.3052 23.8082 77.4687 25.0539 76.5663 26.2621C75.2409 28.0276 73.9296 29.8118 72.5056 31.4977C70.4658 33.9047 68.3461 36.2509 66.2265 38.5924C65.0797 39.8568 63.8765 41.0603 62.678 42.2779C61.7381 43.2145 60.8263 44.1886 59.8581 45.0877C57.5081 47.2419 55.2005 49.4522 52.7377 51.4706C49.241 54.3319 45.6879 57.1417 42.0313 59.7735C39.0939 61.8808 35.9685 63.74 32.8712 65.6225C30.6811 66.9525 28.4345 68.2122 26.1456 69.3689C23.7017 70.6052 21.2013 71.7432 18.6775 72.8062C16.6706 73.6492 14.598 74.3469 12.5394 75.054C10.6395 75.7431 8.62408 76.0611 6.60342 75.9906C4.89735 75.911 3.24769 75.5223 1.97401 74.3563C1.30089 73.7775 0.78894 73.0356 0.487614 72.2021C0.186289 71.3687 0.105773 70.4719 0.253844 69.5984C0.564038 67.4302 1.85651 65.7724 2.91399 63.9788C4.72346 60.9255 6.59402 57.8909 8.43169 54.8657C9.685 52.8084 10.9273 50.751 12.1587 48.6936C13.8037 45.9587 15.4487 43.2192 17.0889 40.489C18.4472 38.2412 19.8384 36.0074 21.2013 33.7596C22.8604 31.0341 24.4913 28.2945 26.155 25.569C28.1901 22.2301 30.2487 18.9052 32.2649 15.5662C33.7125 13.1826 35.1225 10.7849 36.5653 8.39657C37.7873 6.40631 39.0093 4.42073 40.2313 2.42578L41.7211 0Z" fill="url(#paint0_linear_443_8)"/>
<path d="M89.1621 75.5737H88.0999C83.2464 75.5737 78.3899 75.5737 73.5302 75.5737C73.3325 75.6028 73.1306 75.5703 72.9522 75.4806C72.7738 75.3909 72.6277 75.2484 72.5338 75.0726C71.199 72.7311 69.836 70.4505 68.4919 68.1418C67.0881 65.7348 65.6782 63.3262 64.2619 60.916C63.134 58.9726 62.0154 57.0244 60.8827 55.0857C59.8534 53.3202 58.8053 51.5641 57.8372 49.9344L67.5989 40.2734C74.6957 51.8903 81.8835 63.6571 89.1621 75.5737Z" fill="url(#paint1_linear_443_8)"/>
<path d="M1.96446 74.3516C1.96446 74.3516 55.3272 60.4104 88.6966 0L60.9671 12.1757L69.4787 17.8656C69.4787 17.8656 52.0373 43.0834 28.5378 53.8542C19.5045 57.994 11.7215 64.3347 1.27827 66.9665C1.27827 66.9665 -2.01166 70.7129 1.96446 74.3516Z" fill="url(#paint2_linear_443_8)"/>
<path d="M66.6071 41.21C66.6071 41.21 62.3772 60.4102 84.4668 75.3958H88.6967L67.5471 40.2734L66.6071 41.21Z" fill="url(#paint3_linear_443_8)"/>
<path d="M23.4055 56.467C22.9355 56.7574 22.2493 56.0315 23.1329 54.5657C24.2844 52.6551 36.6968 32.6682 41.2276 25.3721C41.9889 24.1405 43.1075 22.4874 44.5645 25.344L50.6274 36.0586C50.6274 36.0586 59.5572 28.5659 59.0872 27.6293C54.8996 19.2936 40.6965 20.0382 40.3393 20.1365C36.9976 21.0731 31.3389 24.7071 23.1329 39.1119C19.4294 45.6119 17.0512 49.672 15.5238 52.2243C15.0348 53.0427 14.8006 53.9873 14.8506 54.9384C14.9006 55.8896 15.2327 56.8046 15.8048 57.5676C16.3769 58.3307 17.1633 58.9075 18.0645 59.2251C18.9657 59.5427 19.9412 59.5867 20.8675 59.3517L21.1166 59.2862L21.3798 59.1972" fill="url(#paint4_linear_443_8)"/>
<defs>
<linearGradient id="paint0_linear_443_8" x1="-9.25407" y1="41.0837" x2="84.7385" y2="32.5089" gradientUnits="userSpaceOnUse">
<stop stop-color="#AF39EF"/>
<stop offset="0.25" stop-color="#2E68E5"/>
<stop offset="0.65" stop-color="#8F30E2"/>
<stop offset="0.87" stop-color="#681FC6"/>
<stop offset="0.92" stop-color="#681FC6"/>
</linearGradient>
<linearGradient id="paint1_linear_443_8" x1="-7.01221" y1="65.6505" x2="86.9804" y2="57.0757" gradientUnits="userSpaceOnUse">
<stop stop-color="#AF39EF"/>
<stop offset="0.25" stop-color="#2E68E5"/>
<stop offset="0.65" stop-color="#8F30E2"/>
<stop offset="0.87" stop-color="#681FC6"/>
</linearGradient>
<linearGradient id="paint2_linear_443_8" x1="87.3853" y1="-2.61778" x2="-37.2574" y2="119.51" gradientUnits="userSpaceOnUse">
<stop stop-color="#AF39EF"/>
<stop offset="0.52" stop-color="#2E68E5"/>
<stop offset="1" stop-color="#8F30E2"/>
</linearGradient>
<linearGradient id="paint3_linear_443_8" x1="73.2011" y1="41.8469" x2="87.9879" y2="111.317" gradientUnits="userSpaceOnUse">
<stop stop-color="#AF39EF"/>
<stop offset="0.52" stop-color="#2E68E5"/>
<stop offset="0.89" stop-color="#681FC6"/>
<stop offset="1" stop-color="#8F30E2"/>
</linearGradient>
<linearGradient id="paint4_linear_443_8" x1="57.0428" y1="10.1103" x2="28.3872" y2="51.8573" gradientUnits="userSpaceOnUse">
<stop offset="0.76" stop-color="#6629CC"/>
<stop offset="1" stop-color="#494AD8"/>
</linearGradient>
</defs>
</svg>
