<svg width="248" height="63" viewBox="0 0 248 63" fill="none" xmlns="http://www.w3.org/2000/svg">
<path d="M34.0719 0C34.7666 1.04016 35.3961 1.96516 35.991 2.90169C38.0125 6.0004 40.0301 9.1004 42.0439 12.2017C43.963 15.1648 45.8821 18.133 47.8012 21.1063C47.8626 21.1984 47.9087 21.2982 47.9624 21.3942C48.5612 22.4574 48.6149 22.5111 47.7705 23.3709C45.8936 25.29 43.9515 27.14 42.0324 29.013C41.8691 29.1448 41.6944 29.2617 41.5104 29.3623L34.9854 18.3428H34.7244C34.4097 18.765 34.0604 19.168 33.7917 19.6133C32.0108 22.5802 30.2529 25.5586 28.4758 28.5294C26.6987 31.5002 24.9485 34.3366 23.206 37.2613C21.6169 39.9481 20.0701 42.6348 18.508 45.3216C18.4159 45.4751 18.3506 45.644 18.2048 45.9549C18.6999 46.45 18.8688 46.5421 19.0837 46.45C20.5576 45.8113 21.9707 45.0405 23.3058 44.1471C25.8428 42.773 28.2954 41.2147 30.7058 39.6295C33.3926 37.8486 35.9987 35.8834 38.578 33.9183C40.1133 32.7668 41.5641 31.4772 42.9958 30.1875C44.5771 28.7559 46.1469 27.305 47.6247 25.7697C49.2213 24.1116 50.772 22.3921 52.2305 20.6035C53.8042 18.6844 55.2473 16.6425 56.7442 14.6504C56.94 14.3895 57.1089 14.0977 57.3315 13.7523L49.705 10.0791L72.4809 0.0997935C72.4233 0.913494 72.3926 1.55064 72.3312 2.18778C72.2353 3.22026 72.1086 4.2489 72.0088 5.28138C71.8527 6.92413 71.7043 8.56689 71.5636 10.2096C71.4791 11.173 71.4177 12.1287 71.3294 13.096C71.1836 14.5852 71.007 16.1205 70.8881 17.6174C70.7883 18.7113 70.7307 19.8052 70.6462 20.8991C70.6232 21.2253 70.5733 21.5516 70.5234 21.9853L64.6893 18.4541C63.9486 19.5135 63.2654 20.5344 62.5284 21.5247C61.4461 22.9717 60.3752 24.434 59.2122 25.8158C57.5464 27.7886 55.8154 29.7116 54.0844 31.6307C53.1478 32.667 52.1653 33.6534 51.1865 34.6514C50.4189 35.419 49.6743 36.2174 48.8836 36.9543C46.9645 38.7199 45.0799 40.5315 43.0687 42.1858C40.2131 44.5309 37.3114 46.8338 34.3253 48.9909C31.9264 50.7181 29.374 52.2419 26.8446 53.7848C25.056 54.8749 23.2213 55.9074 21.3521 56.8554C19.3562 57.8687 17.3143 58.8014 15.2532 59.6727C13.6143 60.3635 11.9216 60.9354 10.2405 61.515C8.68888 62.0798 7.04301 62.3404 5.39283 62.2826C3.99955 62.2174 2.65234 61.8988 1.61219 60.9431C1.06248 60.4688 0.644392 59.8607 0.398313 59.1775C0.152233 58.4944 0.0864794 57.7594 0.207403 57.0435C0.460724 55.2664 1.51623 53.9077 2.37983 52.4376C3.85754 49.9351 5.38515 47.448 6.88589 44.9685C7.90941 43.2822 8.92398 41.596 9.92959 39.9097C11.273 37.6682 12.6163 35.4228 13.9559 33.1852C15.0651 31.3428 16.2012 29.512 17.3143 27.6697C18.6692 25.4358 20.0011 23.1905 21.3598 20.9566C23.0217 18.22 24.7029 15.4949 26.3495 12.7582C27.5316 10.8046 28.6831 8.8394 29.8614 6.88191C30.8594 5.25067 31.8573 3.62327 32.8552 1.98819L34.0719 0Z" fill="url(#paint0_linear_272_8)"/>
<path d="M72.8148 61.941H71.9474C67.9838 61.941 64.0176 61.941 60.0489 61.941C59.8875 61.9649 59.7226 61.9383 59.577 61.8647C59.4313 61.7912 59.3119 61.6744 59.2352 61.5303C58.1452 59.6112 57.0321 57.742 55.9344 55.8498C54.788 53.877 53.6366 51.9028 52.48 49.9274C51.5588 48.3346 50.6453 46.7379 49.7203 45.1489C48.8797 43.7019 48.0238 42.2625 47.2332 40.9268L55.2051 33.0086C61.0008 42.5299 66.8707 52.1741 72.8148 61.941Z" fill="url(#paint1_linear_272_8)"/>
<path d="M1.60429 60.9393C1.60429 60.9393 45.1833 49.5129 72.4346 0L49.7892 9.97935L56.7402 14.6428C56.7402 14.6428 42.4966 35.3115 23.3055 44.1394C15.9285 47.5324 9.57241 52.7293 1.04391 54.8864C1.04391 54.8864 -1.64284 57.957 1.60429 60.9393Z" fill="url(#paint2_linear_272_8)"/>
<path d="M54.395 33.7762C54.395 33.7762 50.9406 49.5129 68.9802 61.7952H72.4346L55.1627 33.0086L54.395 33.7762Z" fill="url(#paint3_linear_272_8)"/>
<path d="M19.1144 46.2811C18.7305 46.5191 18.1702 45.9242 18.8917 44.7228C19.8321 43.1568 29.9688 26.7753 33.6689 20.7954C34.2906 19.786 35.2041 18.4311 36.394 20.7724L41.3453 29.5542C41.3453 29.5542 48.6379 23.4131 48.2541 22.6454C44.8342 15.8134 33.2351 16.4237 32.9434 16.5043C30.2145 17.2719 25.5933 20.2504 18.8917 32.0567C15.8672 37.3842 13.9251 40.7119 12.6777 42.8037C12.2784 43.4745 12.0871 44.2487 12.128 45.0283C12.1688 45.8078 12.44 46.5578 12.9072 47.1832C13.3744 47.8086 14.0166 48.2813 14.7526 48.5416C15.4886 48.8019 16.2852 48.8381 17.0417 48.6455L17.2452 48.5917L17.4601 48.5188" fill="url(#paint4_linear_272_8)"/>
<path d="M92.7888 14.969C93.9748 14.969 94.658 15.3106 95.4103 16.7L102.952 30.3948C103.114 30.7134 103.044 30.9206 102.68 30.9206H99.7935C99.498 30.9206 99.3598 30.8515 99.2715 30.6443L97.7669 27.8654H86.8434L85.3619 30.6443C85.3174 30.7423 85.2416 30.8226 85.1464 30.8727C85.0511 30.9227 84.9419 30.9396 84.836 30.9206H81.8537C81.4891 30.9206 81.42 30.7134 81.5774 30.3948L89.0465 16.6962C89.7758 15.3068 90.482 14.9652 91.4377 14.9652L92.7888 14.969ZM96.1395 24.9023L92.6084 18.3773C92.5817 18.3287 92.5422 18.2883 92.4941 18.2605C92.4461 18.2328 92.3914 18.2188 92.3359 18.22H92.1977C92.1452 18.2185 92.0934 18.2327 92.049 18.2607C92.0046 18.2887 91.9695 18.3293 91.9482 18.3773L88.4363 24.9023H96.1395Z" fill="#08203C"/>
<path d="M106.917 14.969C106.985 14.9577 107.055 14.9628 107.121 14.9839C107.187 15.0049 107.246 15.0414 107.295 15.0902C107.344 15.139 107.38 15.1987 107.401 15.2644C107.422 15.3301 107.428 15.3999 107.416 15.468V24.5645C107.416 26.9826 108.103 27.6888 110.448 27.6888H116.762C119.107 27.6888 119.768 26.9826 119.768 24.5645V15.4641C119.759 15.3962 119.766 15.3271 119.788 15.2622C119.81 15.1973 119.847 15.1384 119.895 15.0901C119.944 15.0418 120.003 15.0054 120.068 14.9838C120.133 14.9621 120.203 14.9557 120.27 14.9652H122.754C122.822 14.9541 122.892 14.9592 122.958 14.9803C123.023 15.0014 123.083 15.0378 123.132 15.0864C123.181 15.1351 123.218 15.1947 123.24 15.2604C123.261 15.326 123.267 15.3959 123.257 15.4641V24.8985C123.257 29.274 121.502 30.9168 116.874 30.9168H110.349C105.743 30.9168 103.97 29.274 103.97 24.8985V15.4641C103.959 15.3959 103.965 15.326 103.986 15.2604C104.008 15.1947 104.045 15.1351 104.094 15.0864C104.143 15.0378 104.203 15.0014 104.268 14.9803C104.334 14.9592 104.404 14.9541 104.472 14.9652L106.917 14.969Z" fill="#08203C"/>
<path d="M139.158 14.969C142.555 14.969 144.059 16.5043 144.059 19.6401V20.9566C144.059 23.6012 143.008 25.1518 140.755 25.6047L144.558 30.3219C144.606 30.375 144.637 30.4415 144.647 30.5125C144.657 30.5835 144.645 30.6558 144.613 30.72C144.581 30.7842 144.531 30.8373 144.468 30.8724C144.406 30.9075 144.334 30.9229 144.263 30.9168H141.192C141.069 30.9335 140.943 30.9142 140.83 30.861C140.717 30.8079 140.621 30.7233 140.555 30.6174L136.932 26.0115H129.731V30.414C129.743 30.4826 129.738 30.5528 129.716 30.619C129.695 30.6852 129.658 30.7453 129.609 30.7944C129.56 30.8436 129.5 30.8803 129.434 30.9016C129.367 30.9229 129.297 30.9281 129.229 30.9168H126.768C126.7 30.9274 126.63 30.9217 126.565 30.9001C126.499 30.8785 126.439 30.8417 126.391 30.7926C126.342 30.7436 126.306 30.6837 126.285 30.6179C126.263 30.5521 126.258 30.4822 126.269 30.414V15.6484C126.257 15.5565 126.266 15.463 126.295 15.3751C126.324 15.2872 126.374 15.2073 126.439 15.1416C126.504 15.0759 126.584 15.0261 126.672 14.9962C126.76 14.9662 126.853 14.9569 126.945 14.969H139.158ZM138.452 22.9909C139.987 22.9909 140.571 22.442 140.571 21.0718V20.1122C140.571 18.7228 139.979 18.1547 138.452 18.1547H130.008C129.804 18.1547 129.712 18.2238 129.712 18.4042V22.987L138.452 22.9909Z" fill="#08203C"/>
<path d="M162.698 14.969C162.766 14.9594 162.835 14.9657 162.9 14.9874C162.965 15.0091 163.024 15.0455 163.072 15.0939C163.12 15.1423 163.157 15.2013 163.178 15.2662C163.2 15.3311 163.206 15.4002 163.197 15.468V17.6788C163.204 17.7462 163.196 17.8144 163.174 17.8784C163.151 17.9424 163.115 18.0006 163.067 18.0488C163.019 18.0969 162.961 18.1338 162.897 18.1568C162.834 18.1798 162.765 18.1882 162.698 18.1816H152.692C150.347 18.1816 149.729 18.8418 149.729 21.2522V21.3673H162.56C162.628 21.3585 162.697 21.3655 162.762 21.3876C162.827 21.4098 162.886 21.4466 162.935 21.4952C162.983 21.5437 163.02 21.6028 163.042 21.6678C163.064 21.7328 163.071 21.802 163.063 21.8701V23.8737C163.071 23.9418 163.064 24.011 163.042 24.076C163.02 24.141 162.983 24.2001 162.935 24.2486C162.886 24.2972 162.827 24.334 162.762 24.3561C162.697 24.3783 162.628 24.3852 162.56 24.3765H149.729V24.649C149.729 27.0402 150.347 27.7195 152.692 27.7195H162.698C162.765 27.7123 162.833 27.7202 162.897 27.7427C162.961 27.7652 163.019 27.8017 163.067 27.8496C163.115 27.8974 163.151 27.9554 163.174 28.0193C163.196 28.0831 163.204 28.1512 163.197 28.2185V30.4293C163.206 30.4972 163.2 30.5664 163.178 30.6314C163.157 30.6965 163.12 30.7556 163.072 30.8043C163.024 30.853 162.965 30.8898 162.9 30.912C162.835 30.9342 162.766 30.9411 162.698 30.9321H152.669C148.044 30.9321 146.29 29.2663 146.29 24.9138V20.9797C146.29 16.6271 148.044 14.9652 152.669 14.9652L162.698 14.969Z" fill="#08203C"/>
<path d="M183.566 14.969C183.977 14.969 184 15.3528 183.796 15.5601L176.868 22.6877L184.115 30.3219C184.318 30.5291 184.295 30.9168 183.885 30.9168H180.584C180.44 30.9266 180.296 30.903 180.163 30.8477C180.029 30.7924 179.911 30.707 179.816 30.5982L174.393 24.8409L168.946 30.5982C168.858 30.7042 168.746 30.7882 168.619 30.8435C168.493 30.8988 168.355 30.9239 168.217 30.9168H165.043C164.632 30.9168 164.632 30.533 164.84 30.3219L172.266 22.5994L165.565 15.5563C165.362 15.3528 165.381 14.9652 165.791 14.9652H169.119C169.258 14.9542 169.396 14.9776 169.524 15.0332C169.651 15.0887 169.762 15.1748 169.848 15.2837L174.727 20.4346L179.67 15.2837C179.757 15.1763 179.868 15.0915 179.994 15.0367C180.121 14.9818 180.258 14.9586 180.396 14.969H183.566Z" fill="#08203C"/>
<path d="M189.124 14.969C189.192 14.9579 189.262 14.9631 189.328 14.9842C189.394 15.0052 189.454 15.0416 189.503 15.0903C189.552 15.139 189.589 15.1986 189.61 15.2642C189.632 15.3299 189.637 15.3997 189.627 15.468V30.414C189.638 30.4825 189.633 30.5528 189.612 30.619C189.59 30.6851 189.554 30.7453 189.504 30.7944C189.455 30.8436 189.395 30.8803 189.329 30.9016C189.263 30.9229 189.193 30.9281 189.124 30.9168H186.664C186.595 30.9295 186.523 30.9253 186.456 30.9047C186.389 30.884 186.328 30.8475 186.278 30.7981C186.228 30.7488 186.19 30.6881 186.169 30.6213C186.147 30.5544 186.142 30.4833 186.153 30.414V15.4641C186.143 15.3959 186.148 15.326 186.17 15.2604C186.192 15.1947 186.228 15.1351 186.277 15.0864C186.326 15.0378 186.386 15.0014 186.452 14.9803C186.518 14.9592 186.588 14.9541 186.656 14.9652L189.124 14.969Z" fill="#08203C"/>
<path d="M205.897 14.969C210.503 14.969 212.276 16.6079 212.276 20.9835V24.8985C212.276 29.274 210.522 30.9168 205.897 30.9168H198.877C194.271 30.9168 192.498 29.251 192.498 24.8985V20.9797C192.498 16.6271 194.252 14.9652 198.877 14.9652L205.897 14.969ZM195.96 24.649C195.96 27.0402 196.62 27.7196 198.992 27.7196H205.759C208.131 27.7196 208.791 27.0555 208.791 24.649V21.2291C208.791 18.8379 208.131 18.1586 205.759 18.1586H198.992C196.62 18.1586 195.96 18.8187 195.96 21.2291V24.649Z" fill="#08203C"/>
<path d="M219.223 14.969C220.866 14.969 221.142 15.3106 221.868 16.3124L230.254 27.4432C230.282 27.4959 230.325 27.5393 230.378 27.5679C230.43 27.5966 230.49 27.6092 230.55 27.6044H230.757C230.868 27.6044 230.937 27.5353 230.937 27.3741V15.4757C230.925 15.4064 230.93 15.3353 230.951 15.2683C230.972 15.2012 231.009 15.1403 231.059 15.0906C231.109 15.0409 231.17 15.0039 231.237 14.9827C231.304 14.9616 231.375 14.9569 231.444 14.969H233.881C233.949 14.9579 234.019 14.9631 234.085 14.9842C234.151 15.0053 234.211 15.0416 234.26 15.0903C234.309 15.139 234.346 15.1986 234.367 15.2642C234.389 15.3299 234.395 15.3997 234.384 15.468V28.5448C234.384 30.3449 233.766 30.9168 232.331 30.9168H230.293C228.65 30.9168 228.373 30.5752 227.671 29.5696L219.262 18.4388C219.231 18.3879 219.188 18.346 219.136 18.3177C219.084 18.2893 219.025 18.2754 218.966 18.2776H218.778C218.64 18.2776 218.594 18.3467 218.594 18.5079V30.4063C218.603 30.4746 218.597 30.5441 218.575 30.6095C218.553 30.6749 218.516 30.7343 218.468 30.783C218.419 30.8318 218.359 30.8685 218.294 30.8904C218.229 30.9123 218.159 30.9187 218.091 30.9091H215.654C215.585 30.9197 215.515 30.914 215.45 30.8924C215.384 30.8708 215.325 30.834 215.276 30.7849C215.227 30.7359 215.191 30.676 215.17 30.6102C215.149 30.5444 215.144 30.4745 215.155 30.4063V17.3334C215.155 15.5332 215.746 14.9652 217.181 14.9652L219.223 14.969Z" fill="#08203C"/>
<path d="M107.938 40.3012V40.9115H106.376V46.0355H105.628V40.9115H104.054V40.3012H107.938Z" fill="black"/>
<path d="M112.018 41.6638C112.295 41.8105 112.52 42.0381 112.663 42.3163C112.828 42.6456 112.909 43.0111 112.897 43.3794V46.0355H112.16V43.4869C112.185 43.1121 112.064 42.7423 111.822 42.4544C111.703 42.3336 111.559 42.2394 111.4 42.1779C111.241 42.1164 111.071 42.089 110.901 42.0975C110.726 42.0911 110.551 42.1221 110.388 42.1882C110.225 42.2544 110.078 42.3543 109.957 42.4813C109.705 42.7817 109.58 43.1686 109.608 43.5598V46.0508H108.859V39.9481H109.608V42.1704C109.759 41.9379 109.971 41.7519 110.222 41.6331C110.496 41.5061 110.795 41.4418 111.097 41.445C111.418 41.4398 111.734 41.5151 112.018 41.6638Z" fill="black"/>
<path d="M118.217 44.0627H114.609C114.609 44.2527 114.647 44.4409 114.721 44.6159C114.796 44.7908 114.905 44.949 115.041 45.0809C115.178 45.2128 115.34 45.3157 115.518 45.3834C115.696 45.4512 115.885 45.4823 116.075 45.4751C116.362 45.4862 116.644 45.4085 116.885 45.2525C117.098 45.104 117.258 44.8916 117.342 44.6461H118.148C118.034 45.0706 117.778 45.4432 117.422 45.7016C117.031 45.9843 116.557 46.1288 116.075 46.1123C115.673 46.1198 115.275 46.0205 114.924 45.8244C114.586 45.6316 114.311 45.3467 114.129 45.003C113.931 44.6244 113.832 44.2019 113.841 43.7748C113.831 43.3485 113.928 42.9263 114.121 42.5466C114.295 42.2089 114.561 41.9278 114.889 41.7367C115.242 41.5454 115.639 41.4476 116.041 41.4527C116.442 41.444 116.839 41.5406 117.192 41.7329C117.514 41.9124 117.78 42.1782 117.96 42.5005C118.14 42.8407 118.233 43.2208 118.228 43.6059C118.24 43.7556 118.217 43.9014 118.217 44.0627ZM117.28 42.7154C117.156 42.5143 116.978 42.352 116.766 42.2472C116.541 42.1381 116.294 42.0829 116.044 42.086C115.687 42.0794 115.341 42.2099 115.077 42.4506C114.802 42.7135 114.638 43.0722 114.62 43.4524H117.449C117.461 43.1955 117.401 42.9403 117.276 42.7154H117.28Z" fill="black"/>
<path d="M124.811 44.7612H122.312L121.852 46.0355H121.061L123.134 40.3358H123.997L126.062 46.0355H125.272L124.811 44.7612ZM124.6 44.1509L123.56 41.2569L122.523 44.1509H124.6Z" fill="black"/>
<path d="M127.716 40.3012V46.0355H126.968V40.3012H127.716Z" fill="black"/>
<path d="M131.939 40.9115V42.8306H134.027V43.4485H131.939V45.4252H134.272V46.0393H131.202V40.3012H134.272V40.9192L131.939 40.9115Z" fill="black"/>
<path d="M138.943 41.944C139.122 42.1357 139.259 42.362 139.347 42.6089C139.435 42.8558 139.471 43.118 139.454 43.3795V46.0355H138.713V43.4869C138.738 43.1121 138.617 42.7423 138.375 42.4544C138.255 42.3336 138.111 42.2394 137.953 42.1779C137.794 42.1164 137.624 42.089 137.454 42.0975C137.278 42.0911 137.104 42.1221 136.941 42.1882C136.778 42.2544 136.631 42.3543 136.51 42.4813C136.26 42.7831 136.135 43.1689 136.161 43.5599V46.0509H135.412V41.5294H136.161V42.1704C136.309 41.939 136.519 41.753 136.767 41.6331C137.029 41.5075 137.317 41.4432 137.608 41.445C137.852 41.4344 138.097 41.4731 138.326 41.5588C138.556 41.6445 138.765 41.7755 138.943 41.944Z" fill="black"/>
<path d="M143.549 41.7098C143.823 41.8583 144.051 42.0803 144.206 42.3508V41.5294H144.973V46.1353C144.98 46.5178 144.889 46.8958 144.708 47.233C144.535 47.56 144.268 47.8275 143.941 48.0007C143.587 48.1902 143.19 48.2842 142.789 48.2732C142.264 48.2929 141.745 48.1465 141.308 47.8548C141.117 47.7226 140.956 47.5518 140.836 47.3534C140.716 47.155 140.638 46.9335 140.609 46.7033H141.35C141.434 46.978 141.616 47.2126 141.86 47.3635C142.138 47.538 142.461 47.6261 142.789 47.6168C142.975 47.6244 143.16 47.5942 143.333 47.5283C143.507 47.4623 143.665 47.3619 143.799 47.233C143.933 47.0875 144.036 46.9162 144.102 46.7294C144.168 46.5427 144.196 46.3444 144.182 46.1468V45.1988C144.024 45.4727 143.796 45.7003 143.522 45.8589C143.213 46.0408 142.86 46.1326 142.501 46.1238C142.117 46.1274 141.74 46.0237 141.412 45.8243C141.083 45.625 140.817 45.3378 140.644 44.9953C140.452 44.6189 140.355 44.2011 140.363 43.7786C140.354 43.356 140.45 42.9377 140.644 42.5619C140.82 42.2263 141.086 41.946 141.411 41.752C141.742 41.5592 142.119 41.4597 142.501 41.4642C142.867 41.4474 143.229 41.5324 143.549 41.7098ZM143.998 42.8843C143.87 42.6433 143.677 42.4427 143.442 42.3048C143.208 42.1704 142.943 42.1015 142.674 42.1052C142.405 42.1021 142.141 42.1696 141.906 42.3009C141.671 42.4364 141.479 42.6361 141.354 42.8766C141.21 43.1511 141.139 43.4575 141.146 43.7671C141.139 44.0792 141.21 44.3882 141.354 44.6653C141.479 44.9089 141.671 45.1124 141.906 45.2525C142.141 45.384 142.405 45.453 142.674 45.453C142.943 45.453 143.207 45.384 143.442 45.2525C143.679 45.1138 143.873 44.9101 143.998 44.6653C144.135 44.3882 144.206 44.0836 144.206 43.7748C144.206 43.466 144.135 43.1613 143.998 42.8843Z" fill="black"/>
<path d="M146.236 42.5504C146.412 42.2148 146.678 41.9345 147.004 41.7405C147.334 41.5477 147.711 41.4482 148.094 41.4527C148.454 41.4427 148.809 41.5317 149.122 41.7098C149.395 41.8594 149.62 42.0812 149.775 42.3508V41.5294H150.542V46.0355H149.775V45.1988C149.615 45.4714 149.386 45.6966 149.111 45.8513C148.799 46.0299 148.445 46.1201 148.086 46.1123C147.703 46.1165 147.327 46.0128 147 45.8129C146.672 45.613 146.406 45.3259 146.232 44.9838C146.04 44.6074 145.944 44.1895 145.952 43.7671C145.943 43.3442 146.041 42.9258 146.236 42.5504ZM149.568 42.8843C149.439 42.6433 149.247 42.4427 149.011 42.3048C148.778 42.1704 148.513 42.1015 148.243 42.1052C147.975 42.1021 147.71 42.1696 147.476 42.3009C147.24 42.4364 147.049 42.6361 146.923 42.8766C146.78 43.1511 146.708 43.4575 146.716 43.7671C146.708 44.0792 146.779 44.3882 146.923 44.6653C147.049 44.9089 147.24 45.1124 147.476 45.2525C147.71 45.384 147.975 45.453 148.243 45.453C148.512 45.453 148.776 45.384 149.011 45.2525C149.249 45.1138 149.442 44.9101 149.568 44.6653C149.704 44.3882 149.775 44.0836 149.775 43.7748C149.775 43.466 149.704 43.1613 149.568 42.8843Z" fill="black"/>
<path d="M154.68 41.7098C154.954 41.8584 155.181 42.0803 155.336 42.3508V41.5294H156.104V46.1353C156.111 46.5178 156.02 46.8958 155.839 47.233C155.666 47.5601 155.398 47.8275 155.071 48.0007C154.718 48.1902 154.321 48.2842 153.92 48.2732C153.395 48.2936 152.878 48.1471 152.442 47.8548C152.25 47.7233 152.089 47.5528 151.968 47.3543C151.847 47.1558 151.769 46.934 151.74 46.7033H152.481C152.565 46.978 152.746 47.2126 152.991 47.3635C153.269 47.538 153.592 47.6261 153.92 47.6168C154.105 47.6244 154.29 47.5942 154.464 47.5283C154.637 47.4623 154.796 47.3619 154.929 47.233C155.064 47.0875 155.167 46.9162 155.233 46.7294C155.299 46.5427 155.326 46.3444 155.313 46.1468V45.1988C155.155 45.4727 154.927 45.7003 154.653 45.8589C154.345 46.0402 153.993 46.1319 153.636 46.1238C153.251 46.1282 152.873 46.0248 152.544 45.8254C152.215 45.6259 151.948 45.3384 151.774 44.9953C151.584 44.6183 151.488 44.2008 151.494 43.7786C151.486 43.3562 151.582 42.9384 151.774 42.5619C151.95 42.2263 152.216 41.946 152.542 41.7521C152.874 41.5587 153.252 41.4592 153.636 41.4642C154 41.4479 154.361 41.5329 154.68 41.7098ZM155.129 42.8843C155.001 42.6433 154.808 42.4427 154.572 42.3048C154.339 42.1704 154.074 42.1015 153.805 42.1052C153.536 42.1021 153.271 42.1696 153.037 42.3009C152.802 42.4364 152.61 42.6361 152.484 42.8767C152.342 43.1515 152.272 43.4579 152.281 43.7671C152.272 44.0789 152.342 44.3879 152.484 44.6653C152.61 44.9089 152.801 45.1124 153.037 45.2525C153.272 45.384 153.536 45.453 153.805 45.453C154.074 45.453 154.338 45.384 154.572 45.2525C154.81 45.1138 155.003 44.9101 155.129 44.6653C155.265 44.3883 155.336 44.0836 155.336 43.7748C155.336 43.466 155.265 43.1613 155.129 42.8843Z" fill="black"/>
<path d="M161.447 44.0627H157.847C157.846 44.2526 157.884 44.4407 157.958 44.6156C158.031 44.7906 158.14 44.9488 158.277 45.0807C158.413 45.2126 158.575 45.3156 158.752 45.3834C158.93 45.4512 159.119 45.4824 159.309 45.4751C159.595 45.4862 159.878 45.4085 160.119 45.2525C160.333 45.105 160.493 44.8923 160.575 44.6461H161.381C161.269 45.07 161.014 45.4426 160.66 45.7016C160.267 45.9838 159.792 46.1282 159.309 46.1123C158.906 46.1186 158.509 46.0193 158.157 45.8244C157.82 45.6316 157.544 45.3467 157.363 45.003C157.165 44.6244 157.066 44.2019 157.075 43.7748C157.067 43.3486 157.163 42.9269 157.355 42.5466C157.529 42.2092 157.795 41.9283 158.123 41.7367C158.476 41.5452 158.873 41.4475 159.274 41.4527C159.676 41.444 160.073 41.5406 160.426 41.7329C160.75 41.9095 161.017 42.1761 161.193 42.5005C161.376 42.8398 161.469 43.2205 161.462 43.6059C161.466 43.7583 161.461 43.9108 161.447 44.0627ZM160.51 42.7154C160.387 42.5133 160.209 42.3508 159.996 42.2472C159.773 42.138 159.527 42.0828 159.278 42.086C158.921 42.0782 158.574 42.2088 158.311 42.4506C158.034 42.7123 157.87 43.0717 157.854 43.4524H160.698C160.706 43.194 160.64 42.9387 160.51 42.7154Z" fill="black"/>
<path d="M168.82 41.6638C169.096 41.8124 169.321 42.0394 169.468 42.3163C169.638 42.6442 169.722 43.0102 169.71 43.3794V46.0355H168.969V43.4869C168.995 43.1126 168.875 42.7428 168.636 42.4544C168.519 42.3341 168.379 42.24 168.223 42.1785C168.068 42.1169 167.901 42.0893 167.734 42.0975C167.56 42.0906 167.387 42.1213 167.227 42.1876C167.067 42.2539 166.923 42.3541 166.805 42.4813C166.555 42.7846 166.432 43.172 166.459 43.5637V46.047H165.719V43.4869C165.744 43.1126 165.625 42.7428 165.385 42.4544C165.268 42.3341 165.128 42.24 164.972 42.1785C164.817 42.1169 164.65 42.0893 164.483 42.0975C164.309 42.0906 164.136 42.1213 163.976 42.1876C163.816 42.2539 163.672 42.3541 163.554 42.4813C163.304 42.7846 163.181 43.172 163.208 43.5637V46.047H162.441V41.5294H163.208V42.1781C163.354 41.9446 163.561 41.7559 163.807 41.6331C164.064 41.507 164.346 41.4426 164.632 41.445C164.985 41.4367 165.333 41.5257 165.638 41.7021C165.93 41.8742 166.158 42.1371 166.287 42.4506C166.406 42.1405 166.626 41.8796 166.912 41.7098C167.205 41.5327 167.541 41.441 167.883 41.445C168.209 41.4391 168.531 41.5142 168.82 41.6638Z" fill="black"/>
<path d="M175.022 44.0627H171.418C171.418 44.2527 171.456 44.4409 171.531 44.6159C171.605 44.7908 171.714 44.949 171.851 45.0809C171.988 45.2128 172.15 45.3157 172.327 45.3834C172.505 45.4512 172.694 45.4823 172.884 45.4751C173.171 45.4862 173.454 45.4085 173.694 45.2525C173.908 45.105 174.068 44.8923 174.151 44.6461H174.957C174.844 45.07 174.59 45.4426 174.236 45.7016C173.843 45.9838 173.368 46.1282 172.884 46.1123C172.482 46.1186 172.085 46.0193 171.733 45.8244C171.396 45.6316 171.12 45.3467 170.938 45.003C170.741 44.6244 170.642 44.2019 170.651 43.7748C170.641 43.3485 170.737 42.9263 170.931 42.5466C171.105 42.2092 171.371 41.9283 171.698 41.7367C172.052 41.5452 172.448 41.4475 172.85 41.4527C173.252 41.444 173.649 41.5406 174.001 41.7329C174.326 41.9095 174.592 42.1761 174.769 42.5005C174.952 42.8398 175.045 43.2205 175.038 43.6059C175.042 43.7583 175.037 43.9108 175.022 44.0627ZM174.086 42.7154C173.962 42.5143 173.783 42.352 173.571 42.2472C173.347 42.1377 173.1 42.0825 172.85 42.086C172.494 42.0788 172.149 42.2094 171.887 42.4506C171.61 42.7123 171.446 43.0717 171.43 43.4524H174.274C174.281 43.194 174.216 42.9387 174.086 42.7154Z" fill="black"/>
<path d="M179.567 41.944C179.745 42.1357 179.883 42.362 179.971 42.6089C180.058 42.8558 180.095 43.118 180.077 43.3795V46.0355H179.336V43.4869C179.361 43.1121 179.24 42.7423 178.999 42.4544C178.879 42.3336 178.735 42.2394 178.576 42.1779C178.417 42.1164 178.248 42.089 178.078 42.0975C177.902 42.0911 177.727 42.1221 177.564 42.1882C177.402 42.2544 177.255 42.3543 177.133 42.4813C176.881 42.7817 176.756 43.1686 176.784 43.5599V46.0509H176.036V41.5294H176.784V42.1704C176.933 41.939 177.143 41.753 177.391 41.6331C177.653 41.5075 177.94 41.4432 178.231 41.445C178.476 41.4344 178.72 41.4731 178.95 41.5588C179.179 41.6445 179.389 41.7755 179.567 41.944Z" fill="black"/>
<path d="M182.215 42.1436V44.8034C182.199 44.9704 182.248 45.1371 182.353 45.2679C182.494 45.3713 182.667 45.4191 182.841 45.4022H183.39V46.0355H182.718C182.379 46.0619 182.043 45.959 181.778 45.7476C181.663 45.6203 181.577 45.4707 181.523 45.3082C181.47 45.1456 181.45 44.9738 181.467 44.8034V42.1436H180.883V41.5294H181.467V40.378H182.215V41.5294H183.39V42.1436H182.215Z" fill="black"/>
<path d="M187.243 40.9115V42.8306H189.331V43.4485H187.243V45.4252H189.577V46.0393H186.506V40.3012H189.577V40.9192L187.243 40.9115Z" fill="black"/>
<path d="M194.244 41.944C194.423 42.1357 194.56 42.362 194.648 42.6089C194.736 42.8558 194.772 43.118 194.755 43.3795V46.0355H194.014V43.4869C194.038 43.1121 193.917 42.7423 193.676 42.4544C193.556 42.3336 193.412 42.2394 193.253 42.1779C193.095 42.1164 192.925 42.089 192.755 42.0975C192.579 42.0911 192.404 42.1221 192.242 42.1882C192.079 42.2544 191.932 42.3543 191.811 42.4813C191.558 42.7817 191.433 43.1686 191.461 43.5599V46.0509H190.713V41.5294H191.461V42.1704C191.61 41.939 191.82 41.753 192.068 41.6331C192.33 41.5075 192.618 41.4432 192.908 41.445C193.153 41.4344 193.397 41.4731 193.627 41.5588C193.856 41.6445 194.066 41.7755 194.244 41.944Z" fill="black"/>
<path d="M198.862 41.7098C199.136 41.8583 199.363 42.0803 199.518 42.3508V41.5294H200.286V46.1353C200.293 46.5178 200.202 46.8958 200.021 47.233C199.848 47.56 199.58 47.8275 199.253 48.0007C198.9 48.1902 198.503 48.2842 198.102 48.2732C197.576 48.2929 197.058 48.1465 196.62 47.8548C196.429 47.7226 196.269 47.5518 196.148 47.3534C196.028 47.155 195.951 46.9335 195.922 46.7033H196.662C196.747 46.978 196.928 47.2126 197.173 47.3635C197.451 47.538 197.774 47.6261 198.102 47.6168C198.287 47.6244 198.472 47.5942 198.646 47.5283C198.819 47.4623 198.978 47.3619 199.111 47.233C199.246 47.0875 199.349 46.9162 199.415 46.7294C199.481 46.5427 199.508 46.3444 199.495 46.1468V45.1988C199.336 45.4727 199.109 45.7003 198.835 45.8589C198.526 46.0408 198.172 46.1326 197.814 46.1238C197.43 46.1274 197.052 46.0237 196.724 45.8243C196.396 45.625 196.13 45.3378 195.956 44.9953C195.764 44.6189 195.668 44.2011 195.676 43.7786C195.666 43.356 195.763 42.9377 195.956 42.5619C196.132 42.2263 196.398 41.946 196.724 41.752C197.054 41.5592 197.431 41.4597 197.814 41.4642C198.179 41.4474 198.542 41.5324 198.862 41.7098ZM199.311 42.8843C199.183 42.6433 198.99 42.4427 198.754 42.3048C198.521 42.1704 198.256 42.1015 197.987 42.1052C197.718 42.1021 197.453 42.1696 197.219 42.3009C196.984 42.4364 196.792 42.6361 196.666 42.8766C196.523 43.1511 196.451 43.4575 196.459 43.7671C196.451 44.0792 196.522 44.3882 196.666 44.6653C196.792 44.9089 196.983 45.1124 197.219 45.2525C197.453 45.384 197.718 45.453 197.987 45.453C198.255 45.453 198.52 45.384 198.754 45.2525C198.992 45.1138 199.185 44.9101 199.311 44.6653C199.447 44.3882 199.518 44.0836 199.518 43.7748C199.518 43.466 199.447 43.1613 199.311 42.8843Z" fill="black"/>
<path d="M201.564 40.6466C201.517 40.5992 201.479 40.5429 201.454 40.4809C201.429 40.419 201.417 40.3527 201.418 40.2859C201.417 40.2185 201.429 40.1517 201.455 40.0893C201.48 40.0269 201.517 39.9702 201.565 39.9226C201.613 39.875 201.669 39.8374 201.732 39.8121C201.794 39.7868 201.861 39.7743 201.928 39.7754C201.994 39.7748 202.058 39.7878 202.119 39.8135C202.179 39.8393 202.233 39.8773 202.278 39.9251C202.324 39.9724 202.361 40.0288 202.386 40.0909C202.41 40.1529 202.422 40.2192 202.42 40.2859C202.421 40.3524 202.409 40.4186 202.385 40.4806C202.361 40.5426 202.324 40.599 202.278 40.6466C202.233 40.6944 202.179 40.7324 202.119 40.7582C202.058 40.784 201.994 40.7969 201.928 40.7963C201.86 40.7975 201.793 40.7848 201.731 40.759C201.668 40.7333 201.611 40.6951 201.564 40.6466ZM202.289 41.5294V46.0355H201.541V41.5294H202.289Z" fill="black"/>
<path d="M207.094 41.944C207.273 42.1357 207.41 42.362 207.498 42.6089C207.586 42.8558 207.622 43.118 207.605 43.3795V46.0355H206.879V43.4869C206.906 43.1119 206.784 42.7415 206.542 42.4544C206.422 42.3336 206.278 42.2394 206.119 42.1779C205.96 42.1164 205.791 42.089 205.621 42.0975C205.445 42.0911 205.27 42.1221 205.107 42.1882C204.945 42.2544 204.798 42.3543 204.676 42.4813C204.427 42.7831 204.302 43.1689 204.327 43.5598V46.0508H203.579V41.5294H204.327V42.1704C204.476 41.939 204.686 41.753 204.933 41.6331C205.197 41.5069 205.486 41.4426 205.778 41.445C206.019 41.437 206.26 41.4769 206.486 41.5626C206.712 41.6482 206.919 41.7779 207.094 41.944Z" fill="black"/>
<path d="M212.917 44.0627H209.317C209.317 44.2524 209.355 44.4402 209.429 44.615C209.503 44.7897 209.612 44.9476 209.748 45.0795C209.885 45.2113 210.046 45.3143 210.223 45.3823C210.401 45.4502 210.59 45.4818 210.779 45.4751C211.066 45.4867 211.349 45.4089 211.589 45.2525C211.803 45.105 211.963 44.8923 212.046 44.6461H212.852C212.739 45.07 212.484 45.4426 212.13 45.7016C211.738 45.9838 211.263 46.1282 210.779 46.1123C210.377 46.1186 209.98 46.0193 209.628 45.8244C209.29 45.6316 209.015 45.3467 208.833 45.003C208.636 44.6244 208.536 44.2019 208.545 43.7748C208.537 43.3486 208.633 42.9269 208.826 42.5466C209 42.2092 209.266 41.9283 209.593 41.7367C209.947 41.5452 210.343 41.4475 210.745 41.4527C211.146 41.444 211.543 41.5406 211.896 41.7329C212.221 41.9095 212.487 42.1761 212.664 42.5005C212.847 42.8398 212.939 43.2205 212.933 43.6059C212.937 43.7583 212.931 43.9108 212.917 44.0627ZM211.981 42.7154C211.858 42.5133 211.679 42.3508 211.466 42.2472C211.243 42.138 210.997 42.0828 210.749 42.086C210.391 42.0782 210.045 42.2088 209.781 42.4506C209.504 42.7123 209.341 43.0717 209.325 43.4524H212.169C212.176 43.194 212.111 42.9387 211.981 42.7154Z" fill="black"/>
<path d="M240.33 11.3841V12.1518H238.794V17.1031H237.854V12.1518H236.319V11.3841H240.33Z" fill="#08203C"/>
<path d="M247.3 11.3841V17.1031H246.359V13.1881L244.617 17.1031H243.968L242.214 13.1881V17.1031H241.278V11.3841H242.287L244.294 15.871L246.294 11.3841H247.3Z" fill="#08203C"/>
<defs>
<linearGradient id="paint0_linear_272_8" x1="-7.5573" y1="33.6726" x2="69.2069" y2="26.6948" gradientUnits="userSpaceOnUse">
<stop stop-color="#AF39EF"/>
<stop offset="0.25" stop-color="#2E68E5"/>
<stop offset="0.65" stop-color="#8F30E2"/>
<stop offset="0.87" stop-color="#681FC6"/>
<stop offset="0.92" stop-color="#681FC6"/>
</linearGradient>
<linearGradient id="paint1_linear_272_8" x1="-5.72648" y1="53.8079" x2="71.0377" y2="46.83" gradientUnits="userSpaceOnUse">
<stop stop-color="#AF39EF"/>
<stop offset="0.25" stop-color="#2E68E5"/>
<stop offset="0.65" stop-color="#8F30E2"/>
<stop offset="0.87" stop-color="#681FC6"/>
</linearGradient>
<linearGradient id="paint2_linear_272_8" x1="71.3638" y1="-2.14556" x2="-30.7864" y2="97.5827" gradientUnits="userSpaceOnUse">
<stop stop-color="#AF39EF"/>
<stop offset="0.52" stop-color="#2E68E5"/>
<stop offset="1" stop-color="#8F30E2"/>
</linearGradient>
<linearGradient id="paint3_linear_272_8" x1="59.78" y1="34.2982" x2="71.9395" y2="91.2189" gradientUnits="userSpaceOnUse">
<stop stop-color="#AF39EF"/>
<stop offset="0.52" stop-color="#2E68E5"/>
<stop offset="0.89" stop-color="#681FC6"/>
<stop offset="1" stop-color="#8F30E2"/>
</linearGradient>
<linearGradient id="paint4_linear_272_8" x1="46.5844" y1="8.28669" x2="23.0677" y2="42.4237" gradientUnits="userSpaceOnUse">
<stop offset="0.76" stop-color="#6629CC"/>
<stop offset="1" stop-color="#494AD8"/>
</linearGradient>
</defs>
</svg>
